<?xml version="1.0" standalone="no"?>
<!DOCTYPE svg PUBLIC "-//W3C//DTD SVG 20010904//EN"
 "http://www.w3.org/TR/2001/REC-SVG-20010904/DTD/svg10.dtd">
<svg version="1.0" xmlns="http://www.w3.org/2000/svg"
 width="2562.000000pt" height="235.000000pt" viewBox="0 0 2562.000000 235.000000"
 preserveAspectRatio="xMidYMid meet">

<g transform="translate(0.000000,235.000000) scale(0.100000,-0.100000)"
fill="#000000" stroke="none">
<path d="M0 1185 l0 -1165 525 0 525 0 0 175 0 175 -270 0 -270 0 0 990 0 990
-255 0 -255 0 0 -1165z"/>
<path d="M7340 1185 l0 -1165 525 0 525 0 0 175 0 175 -265 0 -265 0 0 345 0
345 200 0 200 0 0 180 0 180 -200 0 -200 0 0 290 0 290 265 0 265 0 0 175 0
175 -525 0 -525 0 0 -1165z"/>
<path d="M9280 1970 c0 -209 -3 -380 -6 -380 -3 0 -20 11 -37 24 -18 14 -64
40 -102 58 -65 31 -77 33 -175 33 -97 0 -110 -2 -164 -30 -98 -49 -164 -143
-203 -285 -16 -58 -18 -116 -18 -545 0 -429 2 -487 18 -545 27 -101 63 -164
123 -219 67 -62 125 -81 243 -81 77 0 91 3 157 36 40 19 90 51 112 70 22 19
43 34 46 34 3 0 6 -26 8 -57 l3 -58 233 -3 232 -2 0 1165 0 1165 -235 0 -235
0 0 -380z m-40 -566 l40 -16 0 -528 0 -527 -42 -19 c-52 -23 -112 -23 -139 2
-55 49 -54 42 -54 539 0 457 0 460 22 502 13 23 31 47 40 52 27 15 87 13 133
-5z"/>
<path d="M14600 1964 l0 -386 -35 26 c-19 15 -70 44 -112 64 -75 35 -82 37
-183 37 -95 0 -110 -3 -158 -28 -103 -54 -169 -147 -208 -292 -17 -64 -19
-111 -19 -540 0 -415 2 -478 18 -539 37 -146 115 -245 226 -286 46 -18 73 -21
151 -18 109 4 146 19 250 97 l65 49 3 -64 3 -64 232 2 232 3 3 1163 2 1162
-235 0 -235 0 0 -386z m-42 -564 l42 -19 0 -520 0 -521 -22 -14 c-13 -8 -42
-20 -65 -26 -36 -11 -46 -10 -80 6 -74 36 -73 30 -73 547 0 490 1 499 51 546
29 27 89 28 147 1z"/>
<path d="M17502 1188 l3 -1163 258 -3 257 -2 0 520 0 520 74 0 c68 0 74 -2 79
-22 3 -13 60 -247 127 -521 l122 -497 264 0 c145 0 264 3 264 7 0 4 -70 252
-155 553 -85 301 -155 553 -155 561 0 8 20 25 45 38 24 13 67 48 95 77 98 104
132 223 133 464 1 227 -33 338 -138 443 -72 72 -170 122 -302 154 -106 26
-116 26 -541 30 l-432 5 2 -1164z m790 802 c20 -6 52 -27 72 -47 54 -56 71
-117 71 -253 0 -144 -15 -199 -69 -256 -54 -55 -117 -74 -248 -74 l-98 0 0
320 0 320 118 0 c64 0 133 -5 154 -10z"/>
<path d="M21340 1964 l0 -386 -35 26 c-19 15 -70 44 -112 64 -75 35 -82 37
-183 37 -95 0 -110 -3 -158 -28 -101 -53 -166 -143 -203 -284 -19 -70 -22
-114 -26 -443 -6 -408 4 -600 37 -694 61 -177 167 -256 345 -256 112 0 184 30
303 126 l32 27 0 -67 0 -66 233 2 232 3 3 1163 2 1162 -235 0 -235 0 0 -386z
m-47 -561 l47 -17 0 -527 0 -528 -57 -21 c-53 -20 -62 -21 -97 -9 -22 8 -49
27 -60 42 -20 28 -21 40 -24 490 -2 305 0 474 7 498 25 83 86 107 184 72z"/>
<path d="M24312 1188 l3 -1163 223 -3 222 -2 0 313 0 314 54 83 54 84 36 -115
c20 -63 75 -240 124 -394 l88 -280 253 -3 c201 -2 252 0 248 10 -2 7 -91 225
-196 485 -105 259 -191 477 -191 483 0 7 86 159 192 338 105 180 193 330 195
335 2 4 -113 7 -255 7 l-260 0 -162 -297 c-89 -164 -166 -302 -171 -308 -5 -5
-9 239 -9 633 l0 642 -225 0 -225 0 2 -1162z"/>
<path d="M23552 2128 l3 -163 233 -3 232 -2 0 165 0 165 -235 0 -235 0 2 -162z"/>
<path d="M3090 1700 c-113 -20 -241 -88 -306 -164 -49 -58 -90 -148 -109 -238
-21 -106 -21 -764 0 -882 36 -203 173 -348 380 -401 37 -9 105 -15 185 -15
200 0 319 40 421 140 100 99 127 180 136 408 l6 152 -231 0 -231 0 -3 -166 -3
-166 -29 -24 c-23 -20 -37 -24 -74 -22 -40 3 -50 8 -68 36 -32 48 -36 108 -32
552 3 354 5 398 21 427 21 38 45 53 87 53 82 0 100 -39 100 -215 l0 -135 232
0 231 0 -6 143 c-4 78 -13 165 -21 193 -45 169 -177 282 -370 319 -82 16 -240
18 -316 5z"/>
<path d="M4455 1704 c-105 -21 -137 -30 -184 -50 -154 -69 -260 -239 -278
-449 l-6 -73 129 -6 c71 -3 168 -8 216 -11 l87 -5 5 33 c3 17 8 59 12 92 10
99 31 125 100 125 78 0 96 -35 98 -192 l1 -113 -60 -23 c-362 -143 -496 -237
-576 -407 -105 -223 -25 -502 171 -594 49 -23 67 -26 165 -26 88 0 117 4 144
18 52 29 118 103 150 169 l29 60 10 -63 c6 -35 14 -88 18 -116 l7 -53 210 0
210 0 -8 53 c-18 136 -24 329 -25 762 0 518 -2 534 -62 648 -84 157 -222 228
-439 226 -57 -1 -113 -3 -124 -5z m185 -1088 l0 -224 -40 -36 c-45 -41 -76
-51 -124 -42 -73 14 -115 115 -97 228 18 105 75 186 183 258 33 22 64 40 69
40 5 0 9 -100 9 -224z"/>
<path d="M5680 1694 c-250 -66 -397 -272 -363 -509 23 -160 97 -254 398 -508
192 -163 225 -202 225 -273 0 -58 -24 -85 -82 -91 -89 -10 -170 50 -237 177
l-31 59 -153 -67 c-83 -36 -154 -67 -155 -68 -9 -6 21 -74 58 -134 118 -192
284 -280 530 -280 183 0 294 44 399 156 84 90 106 148 106 290 0 105 -2 113
-33 175 -53 104 -114 169 -348 374 -238 208 -271 248 -258 314 10 51 48 74
113 68 51 -4 58 -7 105 -58 27 -30 61 -79 74 -109 14 -30 26 -56 27 -58 2 -2
71 27 154 64 138 60 151 68 145 88 -63 199 -201 343 -373 388 -81 21 -226 22
-301 2z"/>
<path d="M11905 1704 c-108 -22 -138 -30 -193 -55 -149 -67 -248 -233 -268
-450 l-7 -67 129 -6 c71 -3 168 -8 216 -11 101 -5 92 -15 103 109 6 73 24 120
50 130 25 9 84 7 104 -4 32 -17 44 -67 45 -183 l1 -112 -85 -33 c-328 -129
-468 -228 -545 -386 -113 -230 -36 -509 165 -605 49 -23 67 -26 165 -26 88 0
117 4 144 18 52 29 118 103 150 169 l29 60 10 -63 c6 -35 14 -88 18 -116 l7
-53 210 0 210 0 -7 48 c-18 125 -25 346 -26 772 0 385 -3 476 -15 525 -45 175
-153 285 -322 329 -56 15 -233 21 -288 10z m185 -1088 l0 -224 -40 -36 c-45
-40 -76 -51 -123 -42 -67 13 -99 73 -99 184 1 122 59 218 184 302 33 22 64 40
69 40 5 0 9 -100 9 -224z"/>
<path d="M15726 1694 c-103 -23 -188 -66 -252 -126 -65 -61 -98 -113 -127
-201 -20 -58 -21 -88 -25 -477 -3 -347 -1 -427 12 -490 43 -207 173 -337 383
-384 93 -21 286 -21 372 -1 147 35 278 129 334 241 53 106 57 146 57 591 0
235 -4 433 -10 464 -6 30 -26 87 -45 126 -57 122 -149 197 -300 245 -84 27
-304 34 -399 12z m247 -318 c14 -13 30 -41 36 -62 15 -53 15 -865 0 -918 -17
-60 -49 -86 -108 -86 -43 0 -53 4 -75 30 -14 17 -29 47 -33 68 -4 20 -8 228
-8 462 0 421 0 425 22 467 28 51 46 62 99 63 30 0 48 -7 67 -24z"/>
<path d="M22844 1696 c-64 -21 -156 -73 -220 -126 l-59 -49 -3 80 -3 79 -229
0 -230 0 0 -830 0 -830 230 0 230 0 0 650 0 649 47 28 c36 21 61 28 102 28 47
0 56 -3 75 -28 21 -28 21 -33 24 -678 l3 -649 229 0 230 0 0 688 c0 730 -2
758 -49 850 -24 48 -83 106 -130 129 -46 22 -189 28 -247 9z"/>
<path d="M13536 1680 c-61 -24 -132 -91 -197 -188 l-49 -74 0 131 0 131 -235
0 -235 0 0 -830 0 -830 233 2 232 3 3 542 2 542 49 49 c90 90 206 123 320 89
l51 -15 0 234 0 234 -62 0 c-37 -1 -83 -9 -112 -20z"/>
<path d="M1230 1003 c0 -739 2 -764 57 -865 29 -53 87 -103 146 -125 50 -18
194 -15 253 5 61 21 150 74 204 120 l39 33 3 -73 3 -73 233 -3 232 -2 0 830 0
830 -235 0 -235 0 0 -660 0 -660 -50 -25 c-63 -32 -110 -32 -147 -1 l-28 24
-3 661 -2 661 -235 0 -235 0 0 -677z"/>
<path d="M10030 981 c0 -674 1 -701 20 -765 25 -80 70 -141 135 -181 43 -27
58 -30 143 -33 78 -3 104 0 155 18 57 21 149 76 220 130 l27 22 0 -76 0 -76
233 2 232 3 3 828 2 827 -235 0 -235 0 0 -661 0 -660 -56 -26 c-42 -19 -66
-24 -96 -20 -50 7 -67 23 -78 73 -5 21 -10 321 -10 667 l0 627 -230 0 -230 0
0 -699z"/>
<path d="M19192 963 l3 -718 23 -56 c30 -75 85 -137 146 -165 70 -33 199 -34
283 -3 53 20 148 77 216 129 l27 22 0 -76 0 -76 230 0 230 0 0 830 0 830 -230
0 -230 0 0 -661 0 -660 -56 -26 c-42 -19 -66 -24 -96 -20 -50 7 -67 23 -78 73
-5 21 -10 321 -10 667 l0 627 -230 0 -231 0 3 -717z"/>
<path d="M23560 850 l0 -830 230 0 230 0 0 830 0 830 -230 0 -230 0 0 -830z"/>
</g>
</svg>
